<?xml version="1.0" standalone="no"?>
<!DOCTYPE svg PUBLIC "-//W3C//DTD SVG 20010904//EN"
 "http://www.w3.org/TR/2001/REC-SVG-20010904/DTD/svg10.dtd">
<svg version="1.0" xmlns="http://www.w3.org/2000/svg"
 width="350.000000pt" height="350.000000pt" viewBox="0 0 350.000000 350.000000"
 preserveAspectRatio="xMidYMid meet">

<g transform="translate(0.000000,350.000000) scale(0.100000,-0.100000)"
fill="#000000" stroke="none">
<path d="M1910 2414 c-74 -13 -136 -23 -137 -24 -2 0 -3 -20 -3 -45 l0 -45 85
0 85 0 0 -215 c0 -118 -3 -215 -6 -215 -3 0 -34 7 -68 16 -96 25 -226 16 -302
-21 -79 -39 -152 -114 -196 -202 -47 -93 -61 -165 -56 -277 5 -120 38 -193
117 -269 79 -76 148 -100 261 -94 72 3 99 10 177 45 84 37 93 39 98 22 3 -10
15 -30 26 -44 24 -30 56 -33 172 -15 87 13 99 22 95 68 l-3 36 -77 3 -78 3 0
649 0 650 -27 -1 c-16 -1 -89 -12 -163 -25z m-17 -652 l47 -21 -2 -268 -3
-268 -66 -33 c-179 -92 -342 -24 -380 156 -6 33 -9 96 -6 147 8 149 56 242
150 290 46 24 61 26 132 23 53 -3 96 -12 128 -26z"/>
<path d="M1093 2414 c-4 -11 -144 -336 -311 -724 -167 -388 -306 -712 -308
-721 -4 -11 5 -19 34 -27 22 -7 46 -12 53 -12 9 0 119 241 297 648 156 356
301 687 322 735 l39 88 -23 9 c-13 5 -40 12 -60 15 -29 6 -37 4 -43 -11z"/>
<path d="M2773 2395 c-105 -32 -227 -145 -264 -245 -11 -30 -23 -89 -25 -130
-3 -41 -7 -90 -10 -107 l-5 -33 -68 0 -69 0 -4 -47 c-3 -27 -3 -51 -1 -55 2
-5 38 -8 79 -8 l74 0 0 -315 0 -315 -22 -5 c-13 -2 -41 -6 -63 -7 l-40 -3 0
-45 c0 -43 1 -45 28 -44 15 0 122 1 237 2 l210 2 0 44 0 44 -94 4 c-52 1 -97
6 -100 9 -4 3 -3 146 0 318 l7 311 139 0 c125 0 138 2 138 18 0 9 3 34 6 55
l7 37 -147 0 -146 0 0 95 c0 159 26 233 99 282 40 27 95 30 166 8 27 -8 52
-12 57 -9 12 8 58 101 58 118 0 34 -163 48 -247 21z"/>
</g>
</svg>
