<?xml version="1.0" standalone="no"?>
<!DOCTYPE svg PUBLIC "-//W3C//DTD SVG 20010904//EN"
 "http://www.w3.org/TR/2001/REC-SVG-20010904/DTD/svg10.dtd">
<svg version="1.0" xmlns="http://www.w3.org/2000/svg"
 width="512.000000pt" height="512.000000pt" viewBox="0 0 512.000000 512.000000"
 preserveAspectRatio="xMidYMid meet">
<metadata>
Created by potrace 1.14, written by Peter Selinger 2001-2017
</metadata>
<g transform="translate(0.000000,512.000000) scale(0.100000,-0.100000)"
fill="#000000" stroke="none">
<path d="M4341 4350 c-119 -15 -200 -39 -301 -87 -78 -38 -108 -59 -170 -122
-142 -143 -178 -251 -187 -553 l-6 -198 -199 0 -198 0 0 -145 0 -145 200 0
200 0 0 -759 0 -759 -32 -6 c-18 -3 -104 -15 -190 -27 l-158 -22 0 -124 0
-123 650 0 650 0 0 123 0 123 -192 23 c-106 13 -208 26 -225 28 l-33 6 0 758
0 759 285 0 285 0 0 145 0 145 -285 0 -285 0 0 138 c1 229 22 320 96 402 80
88 177 115 391 108 81 -3 154 -7 162 -9 11 -3 21 29 43 140 16 79 27 145 25
147 -2 2 -48 11 -103 19 -128 19 -329 26 -423 15z"/>
<path d="M1740 4195 c0 -69 1 -125 3 -126 1 0 88 -13 192 -27 l190 -27 3 -423
c1 -232 0 -422 -3 -422 -3 0 -35 25 -72 55 -84 68 -221 137 -333 167 -76 21
-107 23 -295 23 -188 0 -219 -3 -294 -23 -387 -106 -638 -416 -700 -866 -6
-43 -11 -156 -11 -251 0 -251 32 -398 121 -563 87 -163 213 -284 382 -367 132
-65 259 -95 432 -102 218 -9 367 16 522 87 93 43 147 78 220 144 l52 47 6 -33
c3 -18 11 -71 18 -118 l12 -85 398 -3 397 -2 0 123 0 124 -162 22 c-90 12
-178 25 -195 28 l-33 5 0 1369 0 1369 -425 0 -425 0 0 -125z m45 -1118 c121
-40 231 -115 306 -209 l39 -50 0 -480 0 -480 -36 -49 c-81 -111 -212 -198
-354 -236 -90 -24 -319 -24 -410 1 -265 72 -411 268 -440 594 -11 127 2 313
30 432 63 262 230 445 453 496 42 9 105 13 197 10 112 -3 149 -8 215 -29z"/>
<path d="M230 595 l0 -95 2315 0 2315 0 0 95 0 95 -2315 0 -2315 0 0 -95z"/>
</g>
</svg>
