<?xml version="1.0" standalone="no"?>
<!DOCTYPE svg PUBLIC "-//W3C//DTD SVG 20010904//EN"
 "http://www.w3.org/TR/2001/REC-SVG-20010904/DTD/svg10.dtd">
<svg version="1.0" xmlns="http://www.w3.org/2000/svg"
 width="350.000000pt" height="350.000000pt" viewBox="0 0 350.000000 350.000000"
 preserveAspectRatio="xMidYMid meet">
<metadata>
Created by potrace 1.14, written by Peter Selinger 2001-2017
</metadata>
<g transform="translate(0.000000,350.000000) scale(0.100000,-0.100000)"
fill="#000000" stroke="none">
<path d="M1990 2424 c-41 -7 -106 -18 -143 -25 l-68 -11 3 -41 3 -42 76 -3 76
-3 6 -97 c10 -140 8 -342 -2 -342 -5 0 -28 7 -52 16 -70 27 -229 24 -302 -5
-87 -34 -168 -114 -217 -215 -118 -239 -50 -509 153 -602 52 -24 75 -28 147
-29 87 0 94 2 276 81 6 3 23 -15 38 -40 30 -51 30 -51 141 -36 130 19 125 16
125 66 l0 45 -65 -7 c-44 -5 -69 -3 -79 5 -12 10 -13 105 -9 657 6 629 6 644
-13 643 -10 -1 -53 -7 -94 -15z m-103 -656 l53 -19 0 -270 0 -269 -37 -24
c-129 -86 -281 -76 -362 21 -85 102 -87 343 -5 474 39 62 83 91 169 113 34 8
127 -5 182 -26z"/>
<path d="M930 2023 c-95 -225 -238 -556 -316 -736 -157 -363 -150 -332 -72
-351 24 -5 29 -2 42 26 7 18 152 348 320 732 169 385 303 702 299 706 -7 6
-83 30 -94 30 -2 0 -83 -183 -179 -407z"/>
<path d="M2794 2397 c-28 -8 -71 -25 -95 -39 -59 -35 -155 -137 -179 -190 -22
-51 -40 -151 -40 -230 l0 -57 -72 -3 -73 -3 -3 -47 -3 -48 75 0 76 0 0 -325 0
-325 -60 0 -60 0 0 -45 0 -45 229 0 228 0 6 37 c4 20 4 40 1 45 -3 4 -48 8
-100 8 l-94 0 0 319 0 319 31 6 c17 3 83 6 145 6 l114 0 0 50 0 50 -145 0
-145 0 0 53 c0 277 80 383 257 342 l68 -16 21 26 c12 15 26 42 32 61 9 30 8
36 -9 45 -32 16 -149 20 -205 6z"/>
</g>
</svg>
