<?xml version="1.0" standalone="no"?>
<!DOCTYPE svg PUBLIC "-//W3C//DTD SVG 20010904//EN"
 "http://www.w3.org/TR/2001/REC-SVG-20010904/DTD/svg10.dtd">
<svg version="1.0" xmlns="http://www.w3.org/2000/svg"
 width="1024.000000pt" height="1024.000000pt" viewBox="0 0 1024.000000 1024.000000"
 preserveAspectRatio="xMidYMid meet">
<metadata>
Created by potrace 1.14, written by Peter Selinger 2001-2017
</metadata>
<g transform="translate(0.000000,1024.000000) scale(0.100000,-0.100000)"
fill="#000000" stroke="none">
<path d="M0 5120 l0 -5120 5120 0 5120 0 0 5120 0 5120 -5120 0 -5120 0 0
-5120z m7185 3007 l2050 -1104 3 -735 2 -736 -420 -237 c-231 -131 -418 -240
-416 -242 2 -3 190 -105 418 -228 l413 -222 3 -735 2 -736 -2061 -1165 -2061
-1166 -2056 1163 -2057 1164 -3 735 -2 735 412 222 c227 122 416 225 420 229
4 4 -180 113 -410 243 l-417 235 0 737 0 737 2055 1108 c1130 610 2060 1108
2065 1106 6 -2 933 -500 2060 -1108z"/>
<path d="M3715 7084 c-770 -416 -1411 -761 -1423 -768 -22 -12 6 -29 425 -266
246 -139 453 -253 458 -253 6 0 446 235 979 521 l968 522 974 -524 973 -525
443 250 c244 138 446 254 450 258 5 4 -2807 1527 -2841 1538 -3 1 -636 -338
-1406 -753z"/>
<path d="M4780 5259 c-184 -99 -336 -182 -337 -183 -2 -1 151 -89 338 -195
l341 -192 340 192 c217 122 335 195 327 199 -8 4 -161 87 -342 184 -180 97
-328 176 -330 176 -1 0 -153 -82 -337 -181z"/>
<path d="M6506 5104 c-12 -11 -16 -36 -16 -95 0 -43 -5 -98 -11 -121 -10 -35
-9 -50 4 -80 30 -70 37 -46 37 122 0 133 3 162 15 166 8 4 12 10 9 15 -8 13
-21 11 -38 -7z"/>
<path d="M7287 4929 c-10 -6 -25 -8 -34 -5 -17 7 -53 -20 -53 -39 0 -7 -8 -22
-17 -33 -16 -19 -22 -20 -66 -10 -42 10 -50 9 -75 -9 -15 -11 -52 -33 -81 -47
-53 -27 -81 -67 -81 -115 0 -30 -15 -33 -58 -11 -31 16 -45 18 -65 11 -43 -16
-107 -81 -134 -135 -14 -28 -27 -52 -28 -54 -2 -2 -18 6 -36 17 -47 29 -62 27
-132 -16 -74 -45 -82 -55 -96 -110 l-11 -41 -40 21 -40 22 -42 -24 c-24 -13
-56 -30 -71 -38 -43 -23 -56 -51 -63 -139 -6 -75 -5 -83 15 -103 11 -11 21
-32 21 -46 0 -29 7 -31 38 -9 20 14 22 24 22 103 0 74 3 93 21 115 26 33 35
27 41 -28 3 -25 13 -52 22 -61 9 -9 16 -25 16 -36 0 -23 4 -24 35 -3 21 14 25
24 25 64 0 45 1 47 25 42 20 -3 25 -10 25 -33 l0 -30 30 16 c30 15 30 16 30
101 0 63 5 94 17 115 24 41 43 37 43 -8 0 -21 9 -51 20 -68 11 -16 20 -38 20
-48 0 -16 2 -16 30 -2 28 15 29 18 32 96 l3 82 40 -42 c45 -46 62 -49 120 -22
39 17 115 91 115 111 0 16 -32 12 -53 -7 -19 -18 -20 -18 -4 13 30 59 107 66
107 9 0 -29 1 -29 35 -13 24 11 25 14 25 104 0 85 2 95 26 123 14 17 32 31 39
31 7 0 15 6 18 13 6 17 57 -92 57 -123 -1 -14 -7 -36 -15 -50 -19 -34 -19 -50
3 -50 16 -1 16 -1 0 -11 -21 -12 -24 -49 -4 -49 20 0 64 38 81 69 7 15 37 106
65 202 28 96 53 180 55 187 5 14 5 14 -18 1z"/>
<path d="M6307 4885 c-50 -38 -117 -139 -117 -177 0 -14 11 -35 25 -48 l25
-23 0 42 c0 23 6 57 14 75 20 49 79 110 126 131 28 13 37 21 28 27 -25 16 -56
8 -101 -27z"/>
<path d="M6115 4838 c-28 -86 -38 -274 -15 -288 13 -8 15 5 18 90 2 87 5 101
22 110 26 14 26 30 0 30 -22 0 -26 20 -10 51 8 13 7 19 0 19 -6 0 -12 -6 -15
-12z"/>
<path d="M6340 4802 c-45 -45 -36 -56 21 -27 49 25 59 47 26 53 -10 2 -31 -10
-47 -26z"/>
<path d="M6357 4718 c-46 -25 -55 -34 -46 -45 21 -25 91 15 102 58 3 10 4 19
4 19 -1 0 -28 -15 -60 -32z"/>
<path d="M5919 4668 c-19 -13 -47 -30 -62 -38 -38 -19 -45 -34 -58 -125 -12
-82 -4 -125 26 -125 12 0 15 17 15 99 0 95 1 99 25 115 14 9 30 14 35 11 5 -3
12 1 17 8 4 7 27 25 51 39 23 13 39 28 35 31 -13 14 -51 7 -84 -15z"/>
<path d="M5964 4594 c-12 -5 -4 -91 11 -114 7 -11 11 -2 15 35 8 74 2 91 -26
79z"/>
<path d="M5610 4483 c-53 -50 -52 -49 -76 -189 -7 -40 20 -68 31 -32 12 40 55
88 106 120 51 31 64 58 29 58 -20 0 -70 -41 -70 -57 0 -4 -14 -16 -30 -25 -26
-15 -30 -15 -30 -2 0 44 49 98 122 137 51 27 52 37 2 37 -25 0 -44 -11 -84
-47z"/>
<path d="M5324 4419 c-104 -55 -108 -62 -112 -192 -4 -115 5 -178 26 -185 9
-3 12 34 12 145 l0 149 79 42 c43 23 91 42 107 42 27 0 27 1 8 15 -29 22 -55
18 -120 -16z"/>
<path d="M2699 4136 c-218 -117 -404 -218 -413 -223 -14 -7 275 -175 1409
-816 l1427 -807 1416 801 c780 440 1420 804 1424 807 3 4 -181 108 -410 231
-369 198 -419 223 -442 214 -14 -6 -467 -261 -1008 -567 l-983 -556 -1000 565
c-550 311 -1005 565 -1012 565 -6 0 -190 -96 -408 -214z"/>
<path d="M5408 4310 c2 -22 1 -56 -2 -75 -8 -42 -51 -95 -77 -95 -15 0 -19 -7
-19 -36 l0 -36 28 17 c89 58 133 159 102 239 -16 42 -36 33 -32 -14z"/>
<path d="M5667 4325 c-39 -27 -53 -70 -19 -58 25 9 72 54 72 70 0 19 -11 16
-53 -12z"/>
<path d="M5895 4181 c-57 -35 -86 -75 -95 -132 -5 -30 -12 -69 -16 -87 -5 -26
-2 -37 15 -53 11 -11 21 -24 21 -28 0 -31 97 -6 129 32 7 10 21 17 30 17 9 0
25 7 35 15 18 13 20 26 17 113 -2 92 -3 98 -29 119 -33 28 -67 29 -107 4z"/>
<path d="M5672 4157 c-6 -7 -14 -25 -18 -41 -8 -34 -67 -75 -72 -51 -5 21 -7
20 -97 -29 -100 -54 -108 -71 -103 -234 2 -94 6 -116 21 -126 9 -7 17 -25 17
-40 0 -26 0 -26 30 -11 29 15 30 17 30 90 l0 74 70 41 c58 34 70 45 70 66 l0
26 -34 -20 c-25 -15 -33 -17 -29 -6 4 11 -4 14 -36 14 -64 0 -51 23 47 79 l87
51 5 -102 c3 -68 9 -103 18 -106 6 -2 12 -17 12 -33 0 -34 17 -38 48 -9 21 20
22 29 22 199 l0 179 -39 0 c-22 0 -44 -5 -49 -11z"/>
</g>
</svg>
