<?xml version="1.0" standalone="no"?>
<!DOCTYPE svg PUBLIC "-//W3C//DTD SVG 20010904//EN"
 "http://www.w3.org/TR/2001/REC-SVG-20010904/DTD/svg10.dtd">
<svg version="1.0" xmlns="http://www.w3.org/2000/svg"
 width="512.000000pt" height="512.000000pt" viewBox="0 0 512.000000 512.000000"
 preserveAspectRatio="xMidYMid meet">
<metadata>
Created by potrace 1.14, written by Peter Selinger 2001-2017
</metadata>
<g transform="translate(0.000000,512.000000) scale(0.100000,-0.100000)"
fill="#000000" stroke="none">
<path d="M2464 4288 c-8 -18 -178 -420 -378 -893 l-363 -860 100 -3 c55 -1
101 -1 104 1 3 4 719 1697 750 1775 4 9 -19 12 -96 12 l-101 0 -16 -32z"/>
<path d="M420 3564 c-142 -38 -242 -155 -266 -310 -7 -47 -7 -48 107 -59 l66
-7 6 41 c6 47 41 98 89 133 28 19 45 23 113 23 94 -1 110 -8 284 -126 167
-112 198 -123 351 -124 112 0 130 2 173 24 114 57 202 177 214 293 l6 55 -59
7 c-33 4 -71 9 -86 12 -24 5 -27 2 -33 -35 -18 -105 -125 -190 -226 -178 -67
8 -137 41 -234 112 -191 137 -349 181 -505 139z"/>
<path d="M4640 2829 c-65 -13 -147 -56 -192 -101 -76 -76 -108 -180 -108 -352
l0 -101 -105 3 -105 4 0 -86 0 -86 105 0 105 0 0 -443 0 -444 -82 -12 c-126
-18 -118 -12 -118 -92 l0 -69 340 0 340 0 0 70 0 69 -32 6 c-18 3 -71 11 -118
18 l-85 12 -3 443 -2 442 150 0 151 0 -3 83 -3 82 -145 1 -145 2 0 109 c1 216
65 282 262 270 l82 -5 5 27 c3 14 8 44 12 66 3 22 8 47 10 56 4 14 -8 19 -59
28 -73 13 -192 13 -257 0z"/>
<path d="M3320 2747 l0 -74 98 -14 97 -14 3 -248 2 -248 -52 43 c-105 86 -241
120 -390 100 -284 -40 -448 -280 -448 -657 0 -212 49 -356 158 -464 97 -98
209 -141 362 -141 142 0 258 41 341 122 21 21 41 38 43 38 2 0 7 -31 10 -70
l7 -70 210 0 209 0 0 70 c0 39 -1 70 -2 71 -2 0 -47 8 -101 17 l-98 17 -2 795
-2 795 -222 3 -223 2 0 -73z m56 -667 c38 -18 79 -49 103 -77 l41 -46 0 -292
0 -293 -46 -51 c-68 -75 -129 -104 -235 -109 -117 -6 -185 14 -249 74 -87 82
-128 222 -117 402 12 172 54 280 139 357 92 82 239 97 364 35z"/>
</g>
</svg>
