<?xml version="1.0" standalone="no"?>
<!DOCTYPE svg PUBLIC "-//W3C//DTD SVG 20010904//EN"
 "http://www.w3.org/TR/2001/REC-SVG-20010904/DTD/svg10.dtd">
<svg version="1.0" xmlns="http://www.w3.org/2000/svg"
 width="512.000000pt" height="512.000000pt" viewBox="0 0 512.000000 512.000000"
 preserveAspectRatio="xMidYMid meet">
<metadata>
Created by potrace 1.14, written by Peter Selinger 2001-2017
</metadata>
<g transform="translate(0.000000,512.000000) scale(0.100000,-0.100000)"
fill="#000000" stroke="none">
<path d="M0 2560 l0 -2560 2560 0 2560 0 0 2560 0 2560 -2560 0 -2560 0 0
-2560z m2860 2076 c146 -84 501 -290 790 -456 289 -167 644 -372 790 -456
l265 -153 0 -333 c0 -183 -3 -344 -7 -358 -5 -16 -24 -34 -55 -50 -26 -14 -95
-53 -153 -88 -58 -34 -126 -74 -152 -90 -26 -15 -48 -32 -48 -37 0 -6 93 -65
208 -131 l207 -120 0 -329 c0 -182 -3 -342 -7 -356 -6 -20 -36 -43 -125 -95
-65 -38 -125 -73 -134 -79 -65 -38 -175 -101 -184 -104 -5 -2 -17 -9 -25 -16
-8 -7 -40 -26 -70 -42 -49 -27 -191 -109 -230 -133 -8 -5 -69 -40 -135 -78
-66 -39 -160 -94 -210 -123 -136 -79 -389 -226 -490 -284 -49 -29 -125 -73
-168 -98 -43 -26 -81 -47 -83 -47 -2 0 -21 -11 -42 -23 -51 -33 -182 -110
-206 -122 -18 -9 -130 53 -746 408 -399 231 -879 508 -1067 616 l-343 196 5
335 c2 184 5 345 7 358 2 12 12 25 23 29 11 3 44 21 73 39 29 19 55 34 58 34
3 0 18 8 32 19 15 10 47 30 72 43 128 73 140 81 140 97 0 13 -60 53 -205 136
l-204 118 -1 296 c0 163 5 323 11 356 l10 60 192 110 c106 60 215 124 242 141
28 17 73 43 100 58 28 15 64 35 80 45 69 42 441 258 455 264 8 4 29 16 45 27
38 24 176 104 190 109 5 2 17 9 25 16 8 7 40 26 70 42 53 29 199 113 230 133
8 5 49 29 90 52 41 24 83 47 92 53 9 5 63 37 120 69 57 33 119 70 138 83 19
13 42 21 50 17 8 -3 134 -74 280 -158z"/>
<path d="M2548 4089 c-10 -6 -18 -8 -18 -4 0 3 -9 -4 -20 -15 -12 -12 -25 -18
-30 -15 -6 4 -10 2 -10 -3 0 -11 -159 -105 -177 -105 -7 0 -13 -4 -13 -8 0 -9
-161 -102 -177 -102 -7 0 -11 -3 -8 -5 7 -7 -108 -71 -117 -66 -5 3 -8 1 -8
-5 0 -11 -158 -104 -177 -104 -7 0 -11 -3 -8 -5 8 -8 -178 -111 -189 -105 -5
4 -6 1 -2 -5 6 -11 0 -14 -20 -11 -4 0 -10 -4 -13 -9 -7 -12 -157 -101 -174
-105 -7 -1 -14 -5 -17 -9 -10 -12 -285 -171 -297 -171 -41 -1 10 -38 198 -147
l210 -121 72 41 c39 23 76 42 82 43 5 1 12 5 15 9 10 12 165 101 178 101 6 0
12 3 12 7 0 9 282 173 298 173 6 0 12 3 12 7 0 10 161 103 178 103 6 0 12 4
12 8 0 4 52 37 115 74 l116 66 541 -313 c298 -172 548 -314 555 -316 8 -2 46
15 86 39 39 23 77 42 84 42 7 0 13 4 13 8 0 4 54 38 120 76 66 37 119 72 117
77 -2 5 -318 191 -702 413 -891 515 -816 474 -837 462z"/>
<path d="M2465 2835 c-49 -30 -93 -51 -97 -49 -4 3 -8 1 -8 -5 0 -11 -107 -74
-126 -74 -7 0 -11 -4 -8 -8 5 -8 -35 -25 -51 -20 -5 1 -7 -1 -2 -5 4 -4 -10
-17 -30 -28 -20 -12 -35 -25 -34 -31 2 -5 110 -72 240 -147 l236 -137 31 20
c17 10 34 16 37 12 4 -3 7 -2 7 3 0 12 74 56 84 49 3 -3 4 -2 1 2 -6 7 73 55
93 56 6 0 12 4 12 8 0 4 45 32 100 64 55 31 100 59 100 63 -1 8 -475 282 -487
281 -4 0 -48 -25 -98 -54z"/>
<path d="M3152 2488 c-5 -7 -12 -22 -16 -34 -8 -25 -66 -54 -109 -54 -37 0
-57 -15 -57 -42 0 -11 -16 -25 -44 -39 -24 -11 -52 -29 -62 -40 -9 -10 -25
-19 -34 -19 -9 0 -31 -11 -50 -25 -20 -15 -41 -23 -52 -19 -23 7 -84 -22 -108
-54 -25 -31 -28 -137 -6 -168 21 -28 29 -12 30 63 1 63 3 67 31 85 44 26 71
23 79 -8 10 -37 -10 -89 -46 -119 -24 -20 -31 -35 -34 -73 -6 -67 5 -121 26
-132 28 -15 47 -3 64 41 18 44 16 43 50 28 21 -10 29 -8 52 10 15 11 32 21 38
21 6 0 42 20 79 45 38 25 72 45 76 45 4 0 32 17 63 38 85 58 91 61 127 78 18
8 50 26 71 40 26 17 48 24 75 22 30 -2 42 3 60 24 26 30 57 124 59 177 1 41
-24 63 -51 43 -10 -7 -36 -21 -58 -31 -22 -10 -54 -29 -70 -43 -17 -13 -44
-30 -62 -37 -17 -7 -41 -23 -54 -37 -12 -13 -31 -24 -42 -24 -20 0 -77 -30
-77 -41 0 -4 -25 -19 -56 -33 -31 -15 -64 -35 -73 -45 -19 -20 -87 -45 -100
-36 -6 3 -27 -4 -48 -15 -32 -17 -38 -18 -46 -5 -4 8 -3 23 3 34 5 11 7 26 4
35 -7 19 43 68 65 64 12 -2 17 -18 19 -56 4 -74 22 -55 22 24 0 59 2 65 24 74
13 5 27 14 31 19 15 26 35 10 35 -26 0 -37 14 -72 24 -62 3 3 6 42 7 87 1 45
6 85 11 88 16 10 22 -5 8 -21 -8 -10 -9 -15 -1 -15 7 0 11 -21 11 -55 0 -42 3
-53 14 -49 10 4 12 16 9 43 -3 24 1 49 11 69 18 36 63 53 77 31 14 -22 11 -29
-26 -50 -19 -12 -32 -25 -29 -31 3 -5 16 0 29 12 26 25 44 11 19 -15 -9 -9
-14 -18 -12 -21 3 -2 13 5 24 17 13 15 20 42 24 101 3 56 9 83 19 86 9 3 11
-2 6 -18 -10 -32 5 -142 16 -115 14 36 10 129 -7 153 -17 24 -46 29 -62 10z"/>
<path d="M3095 2330 c-3 -5 -2 -10 4 -10 5 0 13 5 16 10 3 6 2 10 -4 10 -5 0
-13 -4 -16 -10z"/>
<path d="M1460 2251 c-8 -6 -18 -7 -22 -5 -4 3 -8 1 -8 -4 0 -12 -88 -65 -107
-65 -7 0 -13 -4 -13 -8 0 -8 -54 -40 -61 -36 -2 1 -3 0 -1 -2 4 -8 -113 -69
-122 -64 -5 4 -6 2 -3 -4 3 -5 -9 -17 -28 -26 -19 -9 -35 -20 -35 -24 0 -7
1421 -832 1500 -872 26 -13 35 -9 221 99 107 62 200 113 207 113 6 0 12 4 12
8 0 9 210 132 228 132 6 0 12 3 12 7 0 10 231 143 247 143 7 0 10 4 7 8 -4 8
35 25 49 21 4 -1 7 2 7 7 0 10 109 74 127 74 7 0 10 4 7 8 -4 8 35 25 49 21 4
-1 7 2 7 7 0 11 159 104 177 104 7 0 11 3 8 5 -5 5 84 59 105 64 15 4 65 47
59 51 -23 18 -412 237 -420 237 -6 0 -70 -34 -142 -77 -72 -42 -137 -76 -144
-76 -7 0 -13 -4 -13 -8 0 -9 -161 -102 -177 -102 -7 0 -11 -3 -8 -5 7 -7 -228
-142 -237 -136 -4 3 -8 1 -8 -4 0 -11 -278 -175 -297 -175 -7 0 -10 -4 -8 -8
6 -9 -52 -32 -67 -26 -7 3 -255 145 -552 316 -296 171 -539 311 -540 311 0 0
-8 -4 -16 -9z"/>
<path d="M3105 2240 c-3 -5 -1 -10 4 -10 6 0 11 5 11 10 0 6 -2 10 -4 10 -3 0
-8 -4 -11 -10z"/>
<path d="M2924 2216 c-3 -13 -4 -36 -2 -52 3 -26 4 -27 21 -10 22 22 24 86 2
86 -8 0 -17 -11 -21 -24z"/>
<path d="M2804 2159 c-19 -22 -19 -22 3 -10 24 12 39 31 25 31 -5 0 -17 -10
-28 -21z"/>
<path d="M2814 2126 c-10 -8 -16 -17 -13 -20 3 -3 14 1 25 8 10 8 16 17 13 20
-3 3 -14 -1 -25 -8z"/>
<path d="M2682 2118 c-7 -7 -12 -32 -12 -57 l1 -46 29 33 c34 37 41 82 12 82
-10 0 -23 -5 -30 -12z"/>
</g>
</svg>
